<svg width="32" height="32" viewBox="0 0 32 32" fill="none" xmlns="http://www.w3.org/2000/svg">
<g clip-path="url(#clip0_6167_10074)">
<path d="M16 26C17.6569 26 19 24.6569 19 23H13C13 24.6569 14.3431 26 16 26Z" fill="#FF412E"/>
<path d="M16.0019 6C19.7894 6 22.8596 9.0461 22.8596 12.8038L22.8558 16.5239C24.1537 17.4351 25 18.9262 25 20.6205C25 21.1891 24.5332 21.6522 23.9602 21.6522H8.03985C7.46679 21.6522 7 21.1891 7 20.6205C7 18.9262 7.85009 17.4313 9.14421 16.5239V12.8038C9.14421 9.0461 12.2144 6 16.0019 6Z" fill="#FFA299"/>
</g>
<defs>
<clipPath id="clip0_6167_10074">
<rect width="32" height="32" fill="white"/>
</clipPath>
</defs>
</svg>
