<svg width="30" height="32" viewBox="0 0 30 32" fill="none" xmlns="http://www.w3.org/2000/svg">
<path d="M17.1625 28.0003C16.9427 28.4044 16.6273 28.7399 16.2478 28.973C15.8683 29.2062 15.438 29.3289 15 29.3289C14.562 29.3289 14.1317 29.2062 13.7522 28.973C13.3727 28.7399 13.0573 28.4044 12.8375 28.0003M22.5 10.667C22.5 8.54526 21.7098 6.51043 20.3033 5.01014C18.8968 3.50985 16.9891 2.66699 15 2.66699C13.0109 2.66699 11.1032 3.50985 9.6967 5.01014C8.29018 6.51043 7.5 8.54526 7.5 10.667C7.5 20.0003 3.75 22.667 3.75 22.667H26.25C26.25 22.667 22.5 20.0003 22.5 10.667Z" stroke="#FF412E" stroke-width="4" stroke-linecap="round" stroke-linejoin="round"/>
</svg>
