<svg width="32" height="32" viewBox="0 0 32 32" fill="none" xmlns="http://www.w3.org/2000/svg">
<g clip-path="url(#clip0_2264_2430)">
<path d="M18.002 25.0869C18.002 26.1435 17.1065 27 16.002 27C14.8974 27 14.002 26.1435 14.002 25.0869" stroke="#111111" stroke-width="1.5" stroke-linecap="round"/>
<path d="M16.0021 5C20.2104 5 23.6218 8.35071 23.6218 12.4842L23.6175 16.5763C25.0597 17.5786 26 19.2188 26 21.0826C26 21.708 25.4813 22.2174 24.8446 22.2174H7.15539C6.51866 22.2174 6 21.708 6 21.0826C6 19.2188 6.94455 17.5745 8.38246 16.5763V12.4842C8.38246 8.35071 11.7938 5 16.0021 5Z" stroke="#111111" stroke-width="1.5" stroke-linejoin="round"/>
</g>
<defs>
<clipPath id="clip0_2264_2430">
<rect width="32" height="32" fill="white"/>
</clipPath>
</defs>
</svg>
