<svg width="29" height="26" viewBox="0 0 29 26" fill="none" xmlns="http://www.w3.org/2000/svg">
<path d="M14.5 20.3333C16.125 20.3333 17.5065 19.7502 18.6444 18.584C19.7815 17.4169 20.35 16 20.35 14.3333C20.35 12.6667 19.7815 11.2498 18.6444 10.0827C17.5065 8.91644 16.125 8.33333 14.5 8.33333C12.875 8.33333 11.4935 8.91644 10.3556 10.0827C9.21853 11.2498 8.65 12.6667 8.65 14.3333C8.65 16 9.21853 17.4169 10.3556 18.584C11.4935 19.7502 12.875 20.3333 14.5 20.3333ZM4.1 25C3.385 25 2.77313 24.7391 2.2644 24.2173C1.7548 23.6947 1.5 23.0667 1.5 22.3333V6.33333C1.5 5.6 1.7548 4.97244 2.2644 4.45067C2.77313 3.928 3.385 3.66667 4.1 3.66667H8.195L9.82 1.86667C10.0583 1.57778 10.3452 1.36089 10.6806 1.216C11.0169 1.072 11.3692 1 11.7375 1H17.2625C17.6308 1 17.9831 1.072 18.3194 1.216C18.6548 1.36089 18.9417 1.57778 19.18 1.86667L20.805 3.66667H24.9C25.615 3.66667 26.2273 3.928 26.7369 4.45067C27.2456 4.97244 27.5 5.6 27.5 6.33333V22.3333C27.5 23.0667 27.2456 23.6947 26.7369 24.2173C26.2273 24.7391 25.615 25 24.9 25H4.1Z" fill="#F1F1F1" stroke="#111111" stroke-width="1.5"/>
</svg>
