<svg width="33" height="36" viewBox="0 0 33 36" fill="none" xmlns="http://www.w3.org/2000/svg">
<g clip-path="url(#clip0_12_356)">
<path d="M31.625 28.5C31.625 29.2956 31.3353 30.0587 30.8195 30.6213C30.3038 31.1839 29.6043 31.5 28.875 31.5H4.125C3.39565 31.5 2.69618 31.1839 2.18046 30.6213C1.66473 30.0587 1.375 29.2956 1.375 28.5V12C1.375 11.2044 1.66473 10.4413 2.18046 9.87868C2.69618 9.31607 3.39565 9 4.125 9H9.625L12.375 4.5H20.625L23.375 9H28.875C29.6043 9 30.3038 9.31607 30.8195 9.87868C31.3353 10.4413 31.625 11.2044 31.625 12V28.5Z" stroke="#FF412E" stroke-width="4" stroke-linecap="round" stroke-linejoin="round"/>
<path d="M16.5 25.5C19.5376 25.5 22 22.8137 22 19.5C22 16.1863 19.5376 13.5 16.5 13.5C13.4624 13.5 11 16.1863 11 19.5C11 22.8137 13.4624 25.5 16.5 25.5Z" stroke="#FF412E" stroke-width="4" stroke-linecap="round" stroke-linejoin="round"/>
</g>
<defs>
<clipPath id="clip0_12_356">
<rect width="33" height="36" fill="white"/>
</clipPath>
</defs>
</svg>
