<svg width="24" height="22" viewBox="0 0 24 22" fill="none" xmlns="http://www.w3.org/2000/svg">
<path d="M12.0009 16.8182C13.3645 16.8182 14.5238 16.3411 15.4787 15.3869C16.4329 14.432 16.91 13.2727 16.91 11.9091C16.91 10.5455 16.4329 9.38618 15.4787 8.43127C14.5238 7.47709 13.3645 7 12.0009 7C10.6373 7 9.47798 7.47709 8.52307 8.43127C7.56889 9.38618 7.0918 10.5455 7.0918 11.9091C7.0918 13.2727 7.56889 14.432 8.52307 15.3869C9.47798 16.3411 10.6373 16.8182 12.0009 16.8182ZM3.27362 20.6364C2.67362 20.6364 2.16016 20.4229 1.73325 19.996C1.30562 19.5684 1.0918 19.0545 1.0918 18.4545V5.36364C1.0918 4.76364 1.30562 4.25018 1.73325 3.82327C2.16016 3.39564 2.67362 3.18182 3.27362 3.18182H6.70998L8.07361 1.70909C8.27361 1.47273 8.51434 1.29527 8.7958 1.17673C9.07798 1.05891 9.37362 1 9.68271 1H14.3191C14.6282 1 14.9238 1.05891 15.206 1.17673C15.4874 1.29527 15.7282 1.47273 15.9282 1.70909L17.2918 3.18182H20.7282C21.3282 3.18182 21.842 3.39564 22.2696 3.82327C22.6965 4.25018 22.91 4.76364 22.91 5.36364V18.4545C22.91 19.0545 22.6965 19.5684 22.2696 19.996C21.842 20.4229 21.3282 20.6364 20.7282 20.6364H3.27362Z" stroke="#C4C4C4" stroke-width="1.5"/>
</svg>
