<svg width="32" height="32" viewBox="0 0 32 32" fill="none" xmlns="http://www.w3.org/2000/svg">
<path d="M6 25.744V13.5H26V25.744C26 26.4396 25.4455 27 24.7572 27H18.9924V20.4976H13.0076V27H7.24283C6.55449 27 6 26.4396 6 25.744Z" fill="#111111" stroke="#111111" stroke-width="1.5"/>
<path d="M23.5645 4.25C25.8919 4.25012 27.75 6.19319 27.75 8.53516V10.959C27.7498 13.4339 25.7898 15.4814 23.333 15.4814C21.7976 15.4813 20.4561 14.6816 19.666 13.4775C18.8759 14.6814 17.5353 15.4814 16 15.4814C14.4645 15.4814 13.1231 14.6816 12.333 13.4775C11.5429 14.6814 10.2022 15.4813 8.66699 15.4814C6.21023 15.4814 4.25024 13.4339 4.25 10.959V8.53516L4.25586 8.31641C4.36728 6.07344 6.18094 4.25012 8.43555 4.25H23.5645Z" fill="#111111" stroke="white" stroke-width="1.5"/>
</svg>
