<svg width="23" height="24" viewBox="0 0 23 24" fill="none" xmlns="http://www.w3.org/2000/svg">
<g clip-path="url(#clip0_78_916)">
<path d="M17.25 8H18.2083C19.225 8 20.2 8.42143 20.9189 9.17157C21.6378 9.92172 22.0416 10.9391 22.0416 12C22.0416 13.0609 21.6378 14.0783 20.9189 14.8284C20.2 15.5786 19.225 16 18.2083 16H17.25M17.25 8H1.91663V17C1.91663 18.0609 2.32049 19.0783 3.03938 19.8284C3.75827 20.5786 4.7333 21 5.74996 21H13.4166C14.4333 21 15.4083 20.5786 16.1272 19.8284C16.8461 19.0783 17.25 18.0609 17.25 17V8ZM5.74996 1V4M9.58329 1V4M13.4166 1V4" stroke="#1E1E1E" stroke-width="2.5" stroke-linecap="round" stroke-linejoin="round"/>
</g>
<defs>
<clipPath id="clip0_78_916">
<rect width="23" height="24" fill="white"/>
</clipPath>
</defs>
</svg>
