<svg width="68" height="68" viewBox="0 0 68 68" fill="none" xmlns="http://www.w3.org/2000/svg">
<circle cx="34" cy="34" r="34" fill="#FFD1CC"/>
<path d="M39.4917 45.8446L37.7711 48.4481C34.5773 53.8028 27.5337 55.5991 22.1129 52.4442C16.6921 49.2894 14.8737 42.3317 18.0675 36.977L19.7881 34.3735C22.9819 29.0188 30.0254 27.2225 35.4462 30.3774C40.867 33.5322 42.6855 40.4899 39.4917 45.8446Z" fill="#FFF6F5"/>
<path d="M22.2578 52.2332C19.5704 54.5354 14 53.7339 14 53.7339C14 53.7339 17.5218 53.2166 17.8958 47.9756L22.2578 52.2332Z" fill="#FFF6F5"/>
<path d="M38.4004 15.1369C40.2246 15.1369 42.02 15.6201 43.5852 16.5352C45.1677 17.4561 46.474 18.8033 47.366 20.4234L47.6134 20.8725L48.1198 20.9861C48.8104 21.1453 49.4837 21.2249 50.1282 21.2249C50.6633 21.2249 51.1525 21.168 51.5956 21.0771C50.9856 22.1628 50.1742 23.277 49.1557 23.9136L48.5975 24.266L48.6262 24.9198C48.701 26.8695 48.2234 28.7852 47.2336 30.445L36.8581 47.7597C35.0224 50.8407 31.6157 52.7506 27.9673 52.7506C26.1431 52.7506 24.3477 52.2675 22.7825 51.3523C20.4289 49.9823 18.7485 47.7768 18.058 45.1392C17.3674 42.5016 17.753 39.7731 19.1398 37.4482L29.5038 20.1278C31.3395 17.0468 34.7462 15.1369 38.3946 15.1369M38.4004 14C34.4758 14 30.6432 15.9895 28.514 19.5537L18.1443 36.8627C14.9505 42.2174 16.7747 49.1751 22.1898 52.33C24.0024 53.3816 25.9935 53.8818 27.9616 53.8818C31.8862 53.8818 35.7187 51.8923 37.8479 48.3282L48.2177 31.0191C49.3686 29.0921 49.8577 26.9605 49.7714 24.8743C52.6141 23.0894 54.001 18.3827 54.001 18.3827C54.001 18.3827 52.8731 20.088 50.1282 20.088C49.6045 20.088 49.0233 20.0255 48.3788 19.8777C47.4235 18.1383 46.0079 16.6262 44.1664 15.5518C42.3538 14.5002 40.3627 14 38.3946 14L38.4004 14Z" fill="#FFF6F5"/>
</svg>
