<svg width="23" height="24" viewBox="0 0 23 24" fill="none" xmlns="http://www.w3.org/2000/svg">
<g clip-path="url(#clip0_80_943)">
<path d="M19.1666 12V22H3.83329V12M11.5 22V7M11.5 7H7.18746C6.55204 7 5.94266 6.73661 5.49335 6.26777C5.04404 5.79893 4.79163 5.16304 4.79163 4.5C4.79163 3.83696 5.04404 3.20107 5.49335 2.73223C5.94266 2.26339 6.55204 2 7.18746 2C10.5416 2 11.5 7 11.5 7ZM11.5 7H15.8125C16.4479 7 17.0573 6.73661 17.5066 6.26777C17.9559 5.79893 18.2083 5.16304 18.2083 4.5C18.2083 3.83696 17.9559 3.20107 17.5066 2.73223C17.0573 2.26339 16.4479 2 15.8125 2C12.4583 2 11.5 7 11.5 7ZM1.91663 7H21.0833V12H1.91663V7Z" stroke="#1E1E1E" stroke-width="2.5" stroke-linecap="round" stroke-linejoin="round"/>
</g>
<defs>
<clipPath id="clip0_80_943">
<rect width="23" height="24" fill="white"/>
</clipPath>
</defs>
</svg>
