<svg width="32" height="32" viewBox="0 0 32 32" fill="none" xmlns="http://www.w3.org/2000/svg">
<g clip-path="url(#clip0_6167_15865)">
<path d="M7 20.1345V15.7692C7 10.6517 11.0311 6.5 15.991 6.5C20.9509 6.5 24.9819 10.6517 24.9819 15.76L25 20.1252" stroke="#FFA299" stroke-width="1.5" stroke-miterlimit="10"/>
<path d="M8.66032 15.7598H7.92084C6.85999 15.7598 6 16.6455 6 17.7381V22.5213C6 23.6139 6.85999 24.4996 7.92084 24.4996H8.66032C9.72117 24.4996 10.5812 23.6139 10.5812 22.5213V17.7381C10.5812 16.6455 9.72117 15.7598 8.66032 15.7598Z" fill="#FF412E" stroke="#FF412E" stroke-miterlimit="10"/>
<path d="M24.0783 15.7598H23.3388C22.278 15.7598 21.418 16.6455 21.418 17.7381V22.5213C21.418 23.6139 22.278 24.4996 23.3388 24.4996H24.0783C25.1391 24.4996 25.9991 23.6139 25.9991 22.5213V17.7381C25.9991 16.6455 25.1391 15.7598 24.0783 15.7598Z" fill="#FF412E" stroke="#FF412E" stroke-miterlimit="10"/>
</g>
<defs>
<clipPath id="clip0_6167_15865">
<rect width="32" height="32" fill="white"/>
</clipPath>
</defs>
</svg>
