<svg width="23" height="24" viewBox="0 0 23 24" fill="none" xmlns="http://www.w3.org/2000/svg">
<path d="M19.9719 4.60987C19.4824 4.09888 18.9012 3.69352 18.2616 3.41696C17.6219 3.14039 16.9363 2.99805 16.2439 2.99805C15.5516 2.99805 14.866 3.14039 14.2263 3.41696C13.5867 3.69352 13.0055 4.09888 12.516 4.60987L11.5002 5.66987L10.4844 4.60987C9.49566 3.57818 8.15469 2.99858 6.75645 2.99858C5.35821 2.99858 4.01723 3.57818 3.02853 4.60987C2.03982 5.64156 1.48438 7.04084 1.48438 8.49987C1.48437 9.95891 2.03982 11.3582 3.02853 12.3899L11.5002 21.2299L19.9719 12.3899C20.4616 11.8791 20.85 11.2727 21.1151 10.6052C21.3801 9.93777 21.5165 9.22236 21.5165 8.49987C21.5165 7.77738 21.3801 7.06198 21.1151 6.39452C20.85 5.72706 20.4616 5.12063 19.9719 4.60987Z" stroke="#757575" stroke-width="2.5" stroke-linecap="round" stroke-linejoin="round"/>
</svg>
