<svg width="24" height="24" viewBox="0 0 24 24" fill="none" xmlns="http://www.w3.org/2000/svg">
<path d="M20.8401 4.60987C20.3294 4.09888 19.7229 3.69352 19.0555 3.41696C18.388 3.14039 17.6726 2.99805 16.9501 2.99805C16.2276 2.99805 15.5122 3.14039 14.8448 3.41696C14.1773 3.69352 13.5709 4.09888 13.0601 4.60987L12.0001 5.66987L10.9401 4.60987C9.90843 3.57818 8.50915 2.99858 7.05012 2.99858C5.59109 2.99858 4.19181 3.57818 3.16012 4.60987C2.12843 5.64156 1.54883 7.04084 1.54883 8.49987C1.54883 9.95891 2.12843 11.3582 3.16012 12.3899L12.0001 21.2299L20.8401 12.3899C21.3511 11.8791 21.7565 11.2727 22.033 10.6052C22.3096 9.93777 22.4519 9.22236 22.4519 8.49987C22.4519 7.77738 22.3096 7.06198 22.033 6.39452C21.7565 5.72706 21.3511 5.12063 20.8401 4.60987Z" stroke="#FF412E" stroke-width="2.5" stroke-linecap="round" stroke-linejoin="round"/>
<path d="M4.7461 4.84948C5.66819 3.72568 4.35591 6.11629 4.21945 6.37557C4.05725 6.68374 2.82156 8.37107 3.02252 8.7395C3.16232 8.9958 3.39671 8.29121 3.57909 8.06324C3.97852 7.56395 4.38466 7.07022 4.79398 6.57904C5.10783 6.20243 5.42641 5.84181 5.60789 5.3881" stroke="#FF412E" stroke-width="3" stroke-linecap="round"/>
<path d="M5.93066 4.31039C6.13554 3.94616 6.87982 4.16544 7.22335 4.2685C8.04688 4.51556 8.93217 5.20859 9.63516 5.70482C10.198 6.10209 10.1189 6.66737 10.5628 7.11121" stroke="#FF412E" stroke-width="3" stroke-linecap="round"/>
<path d="M8.19322 6.24968C7.62682 6.24968 7.40616 6.60584 7.01424 6.99776C6.35946 7.65254 5.88643 8.204 5.50012 9.06246C5.27697 9.55836 4.90038 10.2903 4.85378 10.8339C4.84459 10.9411 4.69281 10.2997 4.50667 10.1756C4.00805 9.84319 2.95178 10.2077 3.83041 10.816C4.60223 11.3503 5.84714 11.3411 6.40381 12.2403C6.89347 13.0313 7.27288 13.6524 7.91792 14.317C8.25235 14.6615 8.43497 15.1533 8.73782 15.5319C9.09334 15.9763 9.37328 16.4787 9.74922 16.9083C10.1899 17.412 10.5716 18.411 11.2095 18.614C11.9909 18.8626 13.2657 17.0125 13.723 16.5552C14.364 15.9143 14.8401 15.3054 15.6561 14.8676C16.3243 14.509 16.8733 13.7928 17.4515 13.2996C17.8883 12.927 18.5252 12.6025 18.8938 12.1745C19.2296 11.7845 19.7522 11.7409 20.1266 11.3486C20.4332 11.0274 20.641 10.682 20.8089 10.2833C21.034 9.74873 21.3355 9.71415 21.3355 9.09837C21.3355 8.26193 21.5515 6.92767 20.9525 6.21975C20.5515 5.74585 18.8768 6.03423 18.3671 6.03423C17.6085 6.03423 16.4432 5.81779 15.7279 6.14794C15.2401 6.37306 14.7246 6.47759 14.2138 6.65663C13.7787 6.80912 13.6539 6.57989 13.9086 6.21377C14.1243 5.90358 14.4552 5.88193 14.7763 5.74697C15.3028 5.52569 15.3836 5.00428 15.7578 4.65776C15.9872 4.44538 16.5264 4.50461 16.8111 4.5261C17.6892 4.59237 18.1038 6.1015 18.1038 6.81223C18.1038 7.65806 18.1038 8.50389 18.1038 9.34972C18.1038 10.2152 17.7927 10.8025 17.2659 11.5162C17.2104 11.5914 16.206 12.7719 16.063 12.5575C15.6225 11.8967 16.366 10.1396 16.5837 9.54123C17.0105 8.36854 17.7332 7.42304 18.3372 6.35142C19.2474 4.73648 19.3965 8.2431 19.3965 8.97269C19.3965 10.2393 18.8924 11.149 17.9602 11.9949C17.0374 12.8323 16.0844 13.7239 15.0097 14.3649C14.7339 14.5294 14.5323 14.5444 14.2257 14.5444C14.0628 14.5444 13.4702 14.6393 13.364 14.4666C13.1327 14.0908 13.1532 13.5607 13.1485 13.144C13.1397 12.3518 13.1159 11.5479 13.1545 10.7561C13.1802 10.229 13.8065 9.64172 14.13 9.23003C14.5932 8.64043 15.0183 9.53608 15.0636 9.97213C15.2348 11.6216 15.0402 15.2985 12.7894 15.2985C11.3065 15.2985 9.50259 15.753 9.12084 13.8442C9.04752 13.4776 9.06339 13.1017 8.9772 12.737C8.8524 12.209 8.55723 11.7137 8.51639 11.1691C8.47301 10.5908 8.00516 9.46042 8.51639 8.99065C8.8743 8.66175 9.84959 8.50233 10.3238 8.41612C11.2144 8.25418 11.1629 9.2542 11.1915 9.93622C11.2341 10.9521 11.2095 11.9718 11.2095 12.9884C11.2095 13.0888 11.2387 13.2026 11.1377 13.2577C10.8044 13.4395 9.9898 13.685 9.76119 13.2278C9.34612 12.3976 9.23958 11.419 8.8635 10.5706C8.62862 10.0408 8.02399 8.49672 7.97777 9.07443C7.94052 9.54006 8.07293 10.0614 7.9658 10.5167C7.86299 10.9537 7.27707 10.885 7.33741 10.4928C7.48304 9.54621 9.38512 9.5431 10.1322 9.15822C10.8871 8.76933 11.351 7.76585 12.179 7.43464" stroke="#FF412E" stroke-width="3" stroke-linecap="round"/>
<path d="M15.1714 6.46875C15.6837 6.69365 16.1793 6.91493 16.5757 7.31131" stroke="#FF412E" stroke-width="3" stroke-linecap="round"/>
</svg>
