<svg width="22" height="22" viewBox="0 0 22 22" fill="none" xmlns="http://www.w3.org/2000/svg">
<path d="M18.1907 0.75H3.19665C1.8454 0.75 0.75 1.85161 0.75 3.21051V18.2895C0.75 19.6484 1.8454 20.75 3.19665 20.75H18.1907C19.542 20.75 20.6374 19.6484 20.6374 18.2895V3.21051C20.6374 1.85161 19.542 0.75 18.1907 0.75Z" stroke="#666666" stroke-width="1.5" stroke-miterlimit="10"/>
<path d="M20.5336 7.75781L13.0032 15.3212L8.34795 10.6396L0.636719 18.3849" stroke="#666666" stroke-width="1.5" stroke-miterlimit="10" stroke-linejoin="round"/>
<path d="M6.86199 8.33364C8.0187 8.33364 8.95639 7.39063 8.95639 6.22736C8.95639 5.0641 8.0187 4.12109 6.86199 4.12109C5.70528 4.12109 4.76758 5.0641 4.76758 6.22736C4.76758 7.39063 5.70528 8.33364 6.86199 8.33364Z" stroke="#666666" stroke-width="1.5" stroke-miterlimit="10"/>
</svg>
