<svg width="32" height="32" viewBox="0 0 32 32" fill="none" xmlns="http://www.w3.org/2000/svg">
<g clip-path="url(#clip0_9748_57023)">
<path d="M23.554 6H8.55993C7.20868 6 6.11328 7.10161 6.11328 8.46051V23.5395C6.11328 24.8984 7.20868 26 8.55993 26H23.554C24.9052 26 26.0006 24.8984 26.0006 23.5395V8.46051C26.0006 7.10161 24.9052 6 23.554 6Z" stroke="#111111" stroke-width="1.5" stroke-miterlimit="10"/>
<path d="M25.8969 13.0078L18.3665 20.5712L13.7112 15.8896L6 23.6349" stroke="#111111" stroke-width="1.5" stroke-miterlimit="10" stroke-linejoin="round"/>
<path d="M12.2253 13.5827C13.382 13.5827 14.3197 12.6396 14.3197 11.4764C14.3197 10.3131 13.382 9.37012 12.2253 9.37012C11.0686 9.37012 10.1309 10.3131 10.1309 11.4764C10.1309 12.6396 11.0686 13.5827 12.2253 13.5827Z" stroke="#111111" stroke-width="1.5" stroke-miterlimit="10"/>
</g>
<defs>
<clipPath id="clip0_9748_57023">
<rect width="32" height="32" fill="white"/>
</clipPath>
</defs>
</svg>
