<svg width="32" height="32" viewBox="0 0 32 32" fill="none" xmlns="http://www.w3.org/2000/svg">
<g clip-path="url(#clip0_2917_12983)">
<path d="M16 3C8.82273 3 3 8.82273 3 16C3 23.1773 8.82273 29 16 29C23.1773 29 29 23.1773 29 16C29 8.82273 23.1773 3 16 3ZM16 27.2673C9.78146 27.2673 4.73275 22.2273 4.73275 16C4.73275 9.77267 9.78146 4.73275 16 4.73275C22.2185 4.73275 27.2673 9.77267 27.2673 16C27.2673 22.2273 22.2273 27.2673 16 27.2673Z" fill="#FF412E"/>
<path fill-rule="evenodd" clip-rule="evenodd" d="M22.629 9.3714C24.5904 11.3327 24.5904 14.5127 22.629 16.474L16.4779 22.6251C14.5166 24.5864 11.3366 24.5864 9.3753 22.6251C7.41396 20.6638 7.41396 17.4838 9.3753 15.5225L15.5264 9.3714C17.4877 7.41006 20.6677 7.41006 22.629 9.3714ZM14.594 11.7862L16.2359 10.1443C17.7885 8.59169 20.3057 8.59169 21.8583 10.1443C23.4109 11.6969 23.4109 14.2141 21.8583 15.7667L20.2164 17.4086C18.6638 18.9612 16.1466 18.9612 14.594 17.4086C13.0414 15.856 13.0414 13.3388 14.594 11.7862Z" fill="#FF412E"/>
</g>
<defs>
<clipPath id="clip0_2917_12983">
<rect width="32" height="32" fill="white"/>
</clipPath>
</defs>
</svg>
