<svg width="160" height="63" viewBox="0 0 160 63" fill="none" xmlns="http://www.w3.org/2000/svg">
<path d="M120.327 9.51334H124.314V7.96764C124.314 5.77214 126.079 4 128.243 4C130.416 4 132.171 5.78199 132.171 7.96764V9.51334H136.206C138.166 9.51334 139.754 11.1181 139.754 13.097C139.754 15.0759 138.166 16.6807 136.206 16.6807H134.189L138.331 30.4936C139.072 32.945 137.249 35.426 134.715 35.426H134.705C132.99 35.426 131.488 34.2544 131.05 32.5808L128.243 21.8593L125.484 32.5611C125.055 34.2446 123.544 35.4162 121.819 35.4162C119.284 35.4162 117.462 32.945 118.202 30.4837L122.345 16.6708H120.327C118.368 16.6708 116.779 15.0661 116.779 13.0872C116.779 11.1083 118.368 9.50349 120.327 9.50349V9.51334ZM145.486 6.20534C147.66 6.20534 149.414 7.98733 149.414 10.173V17.2812H152.144V10.173C152.144 7.97748 153.908 6.20534 156.072 6.20534C158.246 6.20534 160 7.98733 160 10.173V34.2151C160 36.4106 158.236 38.1827 156.072 38.1827C153.898 38.1827 152.144 36.4007 152.144 34.2151V24.4584H149.414V31.4584C149.414 33.6539 147.65 35.426 145.486 35.426C143.312 35.426 141.558 33.644 141.558 31.4584V10.173C141.558 7.97748 143.322 6.20534 145.486 6.20534ZM145.252 39.7087L158.382 52.9703C159.903 54.5061 159.903 56.9871 158.382 58.5131C156.862 60.049 154.405 60.049 152.894 58.5131L141.285 46.7874C140.447 45.9408 139.082 45.9408 138.244 46.7874L126.634 58.5131C125.114 60.049 122.657 60.049 121.146 58.5131C119.626 56.9773 119.626 54.4963 121.146 52.9703L134.276 39.7087C137.123 36.8339 141.675 36.6468 144.745 39.2755L145.252 39.7087Z" fill="#E83D18"/>
<path d="M73.5481 7.19043H98.1707C100.13 7.19043 101.719 8.79521 101.719 10.7741C101.719 12.753 100.13 14.3578 98.1707 14.3578H95.6753V23.7304H98.1707C100.13 23.7304 101.719 25.3352 101.719 27.3141C101.719 29.293 100.13 30.8978 98.1707 30.8978H73.5481C71.5889 30.8978 70 29.293 70 27.3141C70 25.3352 71.5889 23.7304 73.5481 23.7304H76.0435V14.3578H73.5481C71.5889 14.3578 70 12.753 70 10.7741C70 8.79521 71.5889 7.19043 73.5481 7.19043ZM109.546 60.0003H78.3245C73.8796 60.0003 70.2729 56.3576 70.2729 51.8682C70.2729 47.3787 73.8796 43.736 78.3245 43.736H104.117C104.692 43.736 105.15 43.2634 105.15 42.6924C105.15 42.1115 104.682 41.6488 104.117 41.6488H73.7431C71.8326 41.6488 70.2729 40.0834 70.2729 38.1439C70.2729 36.2142 71.8228 34.639 73.7431 34.639H105.023C109.439 34.639 113.016 38.2522 113.016 42.7121C113.016 47.172 109.439 50.7852 105.023 50.7852H79.2213C78.6169 50.7852 78.1295 51.2774 78.1295 51.8879C78.1295 52.4983 78.6169 52.9905 79.2213 52.9905H109.546C111.457 52.9905 113.016 54.5559 113.016 56.4954C113.016 58.4251 111.466 60.0003 109.546 60.0003ZM83.9001 23.7304H87.8089V14.3578H83.9001V23.7304ZM109.088 7.19043C111.262 7.19043 113.016 8.97242 113.016 11.1581V26.9302C113.016 29.1256 111.252 30.8978 109.088 30.8978C106.914 30.8978 105.16 29.1158 105.16 26.9302V11.1581C105.16 8.96257 106.924 7.19043 109.088 7.19043Z" fill="#E83D18"/>
<path d="M39.5145 50.1528L36.8475 54.2531C31.8972 62.6865 20.9796 65.5156 12.5774 60.5468C4.17513 55.5781 1.35654 44.62 6.30691 36.1866L8.97386 32.0863C13.9242 23.6528 24.8418 20.8238 33.244 25.7925C41.6463 30.7613 44.4649 41.7193 39.5145 50.1528Z" fill="#E83D18"/>
<path d="M12.7996 60.2153C8.63415 63.8412 0 62.5788 0 62.5788C0 62.5788 5.45878 61.7641 6.03856 53.5098L12.7996 60.2153Z" fill="#E83D18"/>
<path d="M37.819 1.79054C40.6465 1.79054 43.4294 2.55151 45.8556 3.99289C48.3085 5.44323 50.3332 7.56501 51.7157 10.1165L52.0993 10.8238L52.8842 11.0028C53.9545 11.2535 54.9981 11.3789 55.9971 11.3789C56.8266 11.3789 57.5848 11.2893 58.2716 11.1461C57.3261 12.856 56.0685 14.6108 54.4897 15.6135L53.6245 16.1685L53.6691 17.1981C53.7851 20.2689 53.0448 23.2859 51.5106 25.9001L35.4286 53.17C32.5832 58.0223 27.3028 61.0304 21.6478 61.0304C18.8203 61.0304 16.0374 60.2694 13.6113 58.828C9.96318 56.6705 7.35866 53.1968 6.28831 49.0428C5.21796 44.8887 5.81557 40.5914 7.96519 36.9298L24.0294 9.65099C26.8747 4.79864 32.1551 1.79054 37.8101 1.79054M37.819 0C31.7359 0 25.7954 3.13344 22.4952 8.74677L6.4221 36.0077C1.47174 44.4411 4.29925 55.3992 12.6926 60.3679C15.5022 62.0242 18.5884 62.812 21.6389 62.812C27.7221 62.812 33.6625 59.6786 36.9627 54.0652L53.0358 26.8043C54.8197 23.7694 55.5779 20.4121 55.4441 17.1265C59.8504 14.3153 62 6.90251 62 6.90251C62 6.90251 60.2518 9.58832 55.9971 9.58832C55.1854 9.58832 54.2846 9.48984 53.2856 9.25707C51.8049 6.51755 49.6107 4.13614 46.7564 2.44408C43.9468 0.787836 40.8606 0 37.8101 0L37.819 0Z" fill="#E83D18"/>
</svg>
