<svg width="32" height="32" viewBox="0 0 32 32" fill="none" xmlns="http://www.w3.org/2000/svg">
<path d="M24.1318 17.4175H7.8669C6.76397 17.4175 5.86701 18.3284 5.86701 19.4485V23.7466C5.82714 26.5737 4 26.9853 4 26.9853C4 26.9853 7.01645 27.2147 8.37186 25.845H24.1252C25.2281 25.845 26.125 24.9341 26.125 23.814V19.4485C26.125 18.3284 25.2281 17.4175 24.1252 17.4175H24.1318Z" stroke="currentColor" stroke-width="1.5" stroke-linejoin="round"/>
<path d="M27.9942 5.01444C27.9942 5.01444 24.9777 4.78503 23.6223 6.15476H7.86903C6.7661 6.15476 5.86914 7.06566 5.86914 8.18573V12.5446C5.86914 13.6646 6.7661 14.5755 7.86903 14.5755H24.1339C25.2369 14.5755 26.1338 13.6646 26.1338 12.5446V8.25321C26.1737 5.42604 28.0008 5.01444 28.0008 5.01444H27.9942Z" stroke="currentColor" stroke-width="1.5" stroke-linejoin="round"/>
<ellipse cx="11.3315" cy="10.4524" rx="0.874441" ry="0.868434" fill="currentColor"/>
<ellipse cx="15.9936" cy="10.4524" rx="0.874441" ry="0.868434" fill="currentColor"/>
<ellipse cx="20.6576" cy="10.4524" rx="0.874441" ry="0.868434" fill="currentColor"/>
<ellipse cx="11.3315" cy="21.4514" rx="0.874441" ry="0.868434" fill="currentColor"/>
<ellipse cx="15.9936" cy="21.4514" rx="0.874441" ry="0.868434" fill="currentColor"/>
<ellipse cx="20.6576" cy="21.4514" rx="0.874441" ry="0.868434" fill="currentColor"/>
</svg>
