<svg width="32" height="32" viewBox="0 0 32 32" fill="none" xmlns="http://www.w3.org/2000/svg">
  <path d="M24.2853 8.44385H12.1156C10.616 8.44385 9.40039 9.57091 9.40039 10.9612V25.9267C9.40039 27.3169 10.616 28.444 12.1156 28.444H24.2853C25.7849 28.444 27.0005 27.3169 27.0005 25.9267V10.9612C27.0005 9.57091 25.7849 8.44385 24.2853 8.44385Z" stroke="currentColor" stroke-width="1.5"/>
  <path d="M24.5566 6.44434H7.44531V26H24.5566V6.44434Z" fill="white"/>
  <path d="M19.8849 4H7.71519C6.21563 4 5 5.12706 5 6.51736V21.4828C5 22.8731 6.21563 24.0002 7.71519 24.0002H19.8849C21.3845 24.0002 22.6001 22.8731 22.6001 21.4828V6.51736C22.6001 5.12706 21.3845 4 19.8849 4Z" stroke="currentColor" stroke-width="1.5"/>
  <path d="M13.9726 16.0942C13.4681 16.0942 13.0562 15.7207 13.0516 15.2582C13.0377 14.0911 13.8013 13.3823 14.4076 12.8094C14.8288 12.4147 15.1944 12.0752 15.3194 11.6296C15.4351 11.2222 15.3842 10.8614 15.1759 10.611C14.9167 10.3055 14.4771 10.2376 14.1531 10.2376C13.5931 10.2376 13.1673 10.4031 12.9173 11.2137C12.7785 11.6635 12.2694 11.9224 11.7788 11.7951C11.2882 11.6678 11.0059 11.201 11.1447 10.7511C11.589 9.33362 12.6582 8.55273 14.1531 8.55273C15.1991 8.55273 16.0784 8.91771 16.6338 9.58401C17.1938 10.2461 17.3605 11.15 17.1013 12.0625C16.8514 12.9367 16.2265 13.5224 15.7221 13.9935C15.1713 14.507 14.8844 14.7956 14.889 15.2412C14.8936 15.708 14.4863 16.09 13.9772 16.0942H13.968H13.9726Z" fill="currentColor"/>
  <path d="M13.9386 19.0945C14.5292 19.0945 15.008 18.6157 15.008 18.025C15.008 17.4344 14.5292 16.9556 13.9386 16.9556C13.348 16.9556 12.8691 17.4344 12.8691 18.025C12.8691 18.6157 13.348 19.0945 13.9386 19.0945Z" fill="currentColor"/>
</svg>
