<svg width="23" height="24" viewBox="0 0 23 24" fill="none" xmlns="http://www.w3.org/2000/svg">
<path d="M8.23208 13.51L14.7775 17.49M14.7679 6.51L8.23208 10.49M20.125 5C20.125 6.65685 18.8378 8 17.25 8C15.6622 8 14.375 6.65685 14.375 5C14.375 3.34315 15.6622 2 17.25 2C18.8378 2 20.125 3.34315 20.125 5ZM8.625 12C8.625 13.6569 7.33782 15 5.75 15C4.16218 15 2.875 13.6569 2.875 12C2.875 10.3431 4.16218 9 5.75 9C7.33782 9 8.625 10.3431 8.625 12ZM20.125 19C20.125 20.6569 18.8378 22 17.25 22C15.6622 22 14.375 20.6569 14.375 19C14.375 17.3431 15.6622 16 17.25 16C18.8378 16 20.125 17.3431 20.125 19Z" stroke="#757575" stroke-width="2.5" stroke-linecap="round" stroke-linejoin="round"/>
</svg>
