<svg width="105" height="92" viewBox="0 0 105 92" fill="none" xmlns="http://www.w3.org/2000/svg">
<path d="M54.5 60.5C64.8531 60.5 73.2801 52.1466 73.2801 41.75C73.2801 31.3534 64.9133 23 54.5 23C44.0867 23 35.7199 31.3534 35.7199 41.75C35.7199 52.1466 44.0867 60.5 54.5 60.5ZM54.5 63.875C41.9799 63.875 17 70.125 17 82.625V92H92V82.625C92 70.1851 67.0201 63.875 54.5 63.875Z" fill="#FF412E"/>
<circle cx="45.5" cy="42" r="6" stroke="white" stroke-width="1.5"/>
<circle cx="63.5" cy="42" r="6" stroke="white" stroke-width="1.5"/>
<path d="M51.5 42L57.5 42" stroke="white" stroke-width="1.5" stroke-linecap="round"/>
<path d="M45 64L62 81V92" stroke="white" stroke-width="1.5"/>
<path d="M54.5 73.5L64 64" stroke="white" stroke-width="1.5"/>
<path fill-rule="evenodd" clip-rule="evenodd" d="M41.7264 7.15735L28.7749 14.6349C30.9998 17.7358 35.2579 18.7028 38.6328 16.7543C42.0077 14.8058 43.2994 10.6347 41.7264 7.15735ZM40.9747 5.85593L28.0237 13.3332C26.4524 9.85636 27.7442 5.6868 31.1183 3.73877C34.4924 1.79074 38.7493 2.75675 40.9747 5.85593Z" fill="#FF9588"/>
<g clip-path="url(#clip0_2997_11777)">
<path d="M92.8357 18.9878C90.9686 15.3251 86.4859 13.8695 82.8232 15.7366C79.1606 17.6036 77.705 22.0864 79.572 25.749L85.4274 37.2357C87.2945 40.8984 91.7772 42.354 95.4399 40.4869C99.1025 38.6198 100.558 34.1371 98.6911 30.4745L92.8357 18.9878Z" fill="#FF9588"/>
<path d="M80.9718 25.104L82.5349 28.1702C84.0128 31.0695 87.5613 32.2218 90.4607 30.7438C93.36 29.2659 94.5123 25.7174 93.0343 22.818L91.4713 19.7518C89.9933 16.8525 86.4448 15.7002 83.5455 17.1782C80.6461 18.6561 79.4939 22.2046 80.9718 25.104Z" fill="white"/>
</g>
<path d="M25.4218 37.5293L19.005 34.0908C17.8416 33.4673 16.393 33.9051 15.7696 35.0685L14.9052 36.6815C14.2818 37.845 14.7195 39.2935 15.8829 39.917L22.2997 43.3555C23.4631 43.979 24.9117 43.5412 25.5352 42.3778L26.3995 40.7648C27.023 39.6014 26.5852 38.1528 25.4218 37.5293Z" stroke="#FF9588" stroke-width="1.5" stroke-miterlimit="10"/>
<path d="M23.19 43.8321L15.0016 39.4442C13.0008 38.3721 10.5098 39.1248 9.43763 41.1256L2.6172 53.8533C1.54507 55.854 2.29784 58.3451 4.29857 59.4172L12.487 63.8052C14.4877 64.8773 16.9788 64.1245 18.0509 62.1238L24.8713 49.3961C25.9435 47.3953 25.1907 44.9043 23.19 43.8321Z" stroke="#FF9588" stroke-width="1.5" stroke-miterlimit="10"/>
<path d="M24.5411 50.0136L9.10742 41.7432L3.04744 53.0518L18.4811 61.3223L24.5411 50.0136Z" fill="#FF9588"/>
<path d="M17.6318 52.1311L15.534 51.007L16.6629 48.9004L14.3976 47.6865L13.2687 49.7931L11.1621 48.6642L9.94826 50.9295L12.0549 52.0583L10.926 54.1649L13.1913 55.3788L14.3201 53.2722L16.4179 54.3964L17.6318 52.1311Z" fill="white"/>
<defs>
<clipPath id="clip0_2997_11777">
<rect width="24" height="24" fill="white" transform="translate(74 35.8271) rotate(-72.0105)"/>
</clipPath>
</defs>
</svg>
