<svg width="93" height="97" viewBox="0 0 93 97" fill="none" xmlns="http://www.w3.org/2000/svg">
<path d="M51.5 65.5C61.8531 65.5 70.2801 57.1466 70.2801 46.75C70.2801 36.3534 61.9133 28 51.5 28C41.0867 28 32.7199 36.3534 32.7199 46.75C32.7199 57.1466 41.0867 65.5 51.5 65.5ZM51.5 68.875C38.9799 68.875 14 75.125 14 87.625V97H89V87.625C89 75.1851 64.0201 68.875 51.5 68.875Z" fill="#FF412E"/>
<rect x="28" y="71" width="8" height="26" fill="white"/>
<rect x="68" y="71" width="8" height="26" fill="white"/>
<g clip-path="url(#clip0_2997_11803)">
<path d="M2.24486 21.0364L16.2502 11.1666L31.6565 3.84327L42.1828 21.8503L27.0003 29.5564L12.7712 39.0434L2.24486 21.0364Z" fill="#FF9588"/>
<path d="M26.3837 28.5002C18.0234 28.5164 13.9076 35.7934 13.9076 35.7934L3.77492 18.4597C3.77492 18.4597 7.47399 10.4698 16.251 11.1665L26.3837 28.5002Z" fill="white" stroke="#FF9588" stroke-width="1.5" stroke-linejoin="round"/>
<path d="M38.8603 21.2063C30.5 21.2224 26.3842 28.4994 26.3842 28.4994L16.2515 11.1657C16.2515 11.1657 19.9505 3.17583 28.7276 3.8726L38.8603 21.2063Z" fill="white" stroke="#FF9588" stroke-width="1.5" stroke-linejoin="round"/>
</g>
<path d="M89.1856 28.8388L77.5279 58.43L74.6476 57.2953L86.3054 27.7041L89.1856 28.8388Z" fill="#FF9588" stroke="#FF9588"/>
<path d="M86.6957 27.3199L89.1626 28.2918L91.1026 19.7506L86.6957 27.3199ZM86.6957 27.3199L89.1626 28.2918" stroke="#FF9588" stroke-miterlimit="10"/>
<path d="M18.0663 50.7243L14.0175 52.1773C12.9032 52.5772 12.3332 53.8298 12.7442 54.9752L16.2234 64.6697C16.6344 65.815 17.8709 66.4193 18.9851 66.0195L23.034 64.5664C24.1482 64.1666 24.7182 62.9139 24.3072 61.7686L20.8281 52.0741C20.417 50.9288 19.1806 50.3244 18.0663 50.7243Z" stroke="#FF9588" stroke-miterlimit="10"/>
<path d="M21.4386 55.254L23.873 62.0374C24.1664 62.8549 23.7313 63.7856 22.8657 64.0963L18.8168 65.5494C17.956 65.8583 17.0253 65.4231 16.7302 64.6008L14.2958 57.8173L21.4386 55.254Z" fill="#FF9588" stroke="#FF9588"/>
<defs>
<clipPath id="clip0_2997_11803">
<rect width="34.0683" height="25.3079" fill="white" transform="translate(0 17.1943) rotate(-30.3092)"/>
</clipPath>
</defs>
</svg>
