<svg width="32" height="32" viewBox="0 0 32 32" fill="none" xmlns="http://www.w3.org/2000/svg">
<g clip-path="url(#clip0_9738_70428)">
<path d="M16.4455 27.8952C16.4455 27.8952 16.4219 27.9184 16.4102 27.9299C16.4102 27.9299 13.0044 24.3187 8.76201 25.997C7.395 26.541 5.91016 25.6382 5.91016 24.1913V8.18372C5.91016 7.58185 6.19298 7.01469 6.66436 6.63273C11.8142 2.44274 16.4102 7.30406 16.4102 7.30406C20.5701 3.26453 24.5415 5.39425 26.1442 6.63273C26.6273 7.00312 26.9102 7.58185 26.9102 8.18372V24.2376C26.9102 25.6382 25.4607 26.622 24.1526 26.078C22.1846 25.2562 19.3799 25.0247 16.4455 27.8721V27.8952Z" stroke="#111111" stroke-width="1.5" stroke-miterlimit="10"/>
<path d="M16.0018 10C19.3152 10 22 12.6856 22 15.9999C22 17.5226 21.426 18.9108 20.4923 19.9684C20.7684 21.7127 22 21.9889 22 21.9889C22 21.9889 19.9546 22.1379 18.7193 21.3421C17.9019 21.76 16.9791 21.9998 15.9982 21.9998C12.6848 21.9998 10 19.3142 10 15.9999C10 12.6856 12.6885 10 16.0018 10Z" stroke="#111111" stroke-linejoin="round"/>
<path d="M16.0001 19.2727C16.3917 19.2727 16.7092 18.9527 16.7092 18.558C16.7092 18.1633 16.3917 17.8433 16.0001 17.8433C15.6085 17.8433 15.291 18.1633 15.291 18.558C15.291 18.9527 15.6085 19.2727 16.0001 19.2727Z" fill="#111111"/>
<path d="M15.9972 12.1819C15.6706 12.1819 15.4082 12.5027 15.4082 12.8966V16.4674C15.4082 16.8613 15.6706 17.1821 15.9972 17.1821C16.3239 17.1821 16.5863 16.8613 16.5863 16.4674V12.8966C16.5863 12.5027 16.3239 12.1819 15.9972 12.1819Z" fill="#111111"/>
</g>
<defs>
<clipPath id="clip0_9738_70428">
<rect width="32" height="32" fill="white"/>
</clipPath>
</defs>
</svg>
