<svg width="32" height="32" viewBox="0 0 32 32" fill="none" xmlns="http://www.w3.org/2000/svg">
<g clip-path="url(#clip0_6167_10023)">
<path d="M14 19.5C15.3987 19.5 17.4623 19.8479 19.1885 20.54C20.0517 20.8862 20.8622 21.3307 21.4648 21.8867C22.0709 22.446 22.5 23.1522 22.5 24V26.5H5.5V24C5.5 23.1522 5.92911 22.446 6.53516 21.8867C7.13776 21.3307 7.94826 20.8862 8.81152 20.54C10.5377 19.8479 12.6013 19.5 14 19.5ZM14 9.5C16.4841 9.5 18.5 11.5159 18.5 14C18.5 16.4841 16.4841 18.5 14 18.5C11.5159 18.5 9.5 16.4841 9.5 14C9.5 11.5159 11.5159 9.5 14 9.5Z" fill="#FF412E" stroke="white"/>
<circle cx="24" cy="8" r="6" fill="#FFD1CC"/>
<path d="M24 5.83984C23.5858 5.83984 23.25 5.50406 23.25 5.08984C23.25 4.67563 23.5858 4.33984 24 4.33984C24.4142 4.33984 24.75 4.67563 24.75 5.08984C24.75 5.50406 24.4142 5.83984 24 5.83984Z" fill="#FF412E"/>
<path d="M24 11.8389C24.4159 11.8389 24.75 11.5502 24.75 11.1956L24.75 7.98209C24.75 7.62756 24.4159 7.33887 24 7.33887C23.5841 7.33887 23.25 7.62756 23.25 7.98209L23.25 11.1956C23.25 11.5502 23.5841 11.8389 24 11.8389Z" fill="#FF412E"/>
</g>
<defs>
<clipPath id="clip0_6167_10023">
<rect width="32" height="32" fill="white"/>
</clipPath>
</defs>
</svg>
