<svg width="32" height="32" viewBox="0 0 32 32" fill="none" xmlns="http://www.w3.org/2000/svg">
<g clip-path="url(#clip0_6167_7982)">
<path d="M21.1842 9.27473L21.1842 14L24.8158 14L24.8158 9.27473L28 9.27473L22.9947 4L18 9.27473L21.1842 9.27473Z" fill="#FFA299"/>
<path d="M14 19.5C15.3987 19.5 17.4623 19.8479 19.1885 20.54C20.0517 20.8862 20.8622 21.3307 21.4648 21.8867C22.0709 22.446 22.5 23.1522 22.5 24V26.5H5.5V24C5.5 23.1522 5.92911 22.446 6.53516 21.8867C7.13776 21.3307 7.94826 20.8862 8.81152 20.54C10.5377 19.8479 12.6013 19.5 14 19.5ZM14 9.5C16.4841 9.5 18.5 11.5159 18.5 14C18.5 16.4841 16.4841 18.5 14 18.5C11.5159 18.5 9.5 16.4841 9.5 14C9.5 11.5159 11.5159 9.5 14 9.5Z" fill="#FF412E" stroke="white"/>
</g>
<defs>
<clipPath id="clip0_6167_7982">
<rect width="32" height="32" fill="white"/>
</clipPath>
</defs>
</svg>
